<svg width="28" height="28" viewBox="0 0 28 28" fill="none" xmlns="http://www.w3.org/2000/svg">
<circle cx="14" cy="14" r="14" fill="#4A52B6"/>
<path d="M19.4225 14.3702L12.8936 20.899C12.7366 21.0561 12.5459 21.1346 12.3215 21.1346C12.0972 21.1346 11.9065 21.0561 11.7494 20.899L11.009 20.1587C10.852 20.0016 10.7734 19.8109 10.7734 19.5865C10.751 19.3622 10.8183 19.1715 10.9754 19.0144L16.1917 13.7981L10.9754 8.58173C10.8183 8.42468 10.751 8.23397 10.7734 8.00961C10.7734 7.78526 10.852 7.59455 11.009 7.4375L11.7494 6.69711C11.9065 6.54006 12.0972 6.46154 12.3215 6.46154C12.5459 6.46154 12.7366 6.54006 12.8936 6.69711L19.4225 13.226C19.602 13.383 19.6917 13.5737 19.6917 13.7981C19.6917 14.0224 19.602 14.2131 19.4225 14.3702Z" fill="white"/>
</svg>
