<svg width="22" height="19" viewBox="0 0 22 19" fill="none" xmlns="http://www.w3.org/2000/svg">
<path d="M21.5892 4.51604L17.8218 0.173625C17.6215 -0.0578752 17.2958 -0.0578752 17.0948 0.173625L15.3412 2.19234L15.3398 2.19313L7.49809 11.2351C7.22614 11.5496 7.12907 11.9723 7.11186 12.0528L5.99652 17.4319C5.95453 17.6341 6.00616 17.8435 6.13284 17.9897C6.2306 18.1019 6.3621 18.1643 6.49636 18.1643C6.53629 18.1643 6.57622 18.1572 6.61615 18.1477L11.282 16.8622C11.3481 16.8433 11.6937 16.7397 11.9498 16.4988C12.1219 16.3321 17.5189 10.0665 19.8335 7.37543H19.8342L21.5892 5.35434C21.6862 5.24294 21.7399 5.09203 21.7399 4.9348C21.7399 4.77756 21.6855 4.62665 21.5892 4.51604ZM15.7047 3.45098L16.3677 4.21501L16.8621 4.78468L9.56283 13.1993L8.4055 11.8656L15.7047 3.45098ZM7.45472 15.4993L7.96557 13.0349L10.4324 15.877L8.29466 16.4664L7.45472 15.4993ZM11.4651 15.3918L10.2899 14.0368L17.5877 5.62298L18.7451 6.95746C16.0173 10.1266 12.2961 14.4429 11.4651 15.3918Z" fill="#434EE4"/>
<path d="M6.23762 18.4678H0.518425C0.231329 18.4678 0 18.2015 0 17.8697C0 17.541 0.232017 17.2716 0.518425 17.2716H6.23762C6.52471 17.2716 6.75604 17.541 6.75604 17.8697C6.75604 18.2015 6.52402 18.4678 6.23762 18.4678Z" fill="#434EE4"/>
</svg>
