<svg width="13" height="17" viewBox="0 0 13 17" fill="none" xmlns="http://www.w3.org/2000/svg">
<mask id="mask0" mask-type="alpha" maskUnits="userSpaceOnUse" x="0" y="0" width="13" height="5">
<path fill-rule="evenodd" clip-rule="evenodd" d="M4.63477 2.27272H8.22099V1.09082H4.63477V2.27272ZM11.999 2.2727C12.4707 2.2727 12.8561 2.6818 12.8561 3.182V3.6367C12.8561 4.1367 12.4702 4.5458 11.999 4.5458H0.85711C0.38573 4.5458 0 4.1365 0 3.6367V3.182C0 2.682 0.38573 2.2729 0.85711 2.2729H3.60634V0.9091C3.60634 0.4091 3.99207 0 4.46345 0H8.39266C8.86422 0 9.24995 0.4091 9.24995 0.9089V2.2727H11.999Z" fill="white"/>
</mask>
<g mask="url(#mask0)">
<path fill-rule="evenodd" clip-rule="evenodd" d="M-5 9.5458H17.8561V-5H-5V9.5458Z" fill="#434EE4"/>
</g>
<mask id="mask1" mask-type="alpha" maskUnits="userSpaceOnUse" x="1" y="5" width="11" height="12">
<path fill-rule="evenodd" clip-rule="evenodd" d="M9.27105 14.7417L9.45572 7.4693C9.46356 7.168 9.23935 6.9176 8.95531 6.9093C8.67358 6.903 8.43495 7.1386 8.4273 7.44L8.24262 14.7123C8.23497 15.0137 8.45899 15.2642 8.74321 15.2723C8.74767 15.2727 8.75247 15.2727 8.75728 15.2727C9.03509 15.2727 9.26357 15.0375 9.27105 14.7417ZM6.9426 14.7273V7.45468C6.9426 7.15338 6.71234 6.90918 6.42812 6.90918C6.14408 6.90918 5.91382 7.15338 5.91382 7.45468V14.7273C5.91382 15.0286 6.14426 15.2728 6.42812 15.2728C6.71234 15.2728 6.9426 15.0286 6.9426 14.7273ZM4.11309 15.2723C4.39695 15.2642 4.62098 15.0132 4.61332 14.7123L4.42865 7.44004C4.42099 7.13884 4.18699 6.90594 3.90081 6.90934C3.61677 6.91764 3.39292 7.16804 3.40058 7.46934L3.58525 14.7417C3.59273 15.0381 3.82139 15.2727 4.09902 15.2727C4.10365 15.2727 4.10828 15.2727 4.11309 15.2723ZM11.3991 5.18176C11.4937 5.18176 11.5665 5.26316 11.5614 5.36326L11.059 15.2571C11.0107 16.2161 10.2302 17 9.3252 17H3.53111C2.62628 17 1.84574 16.2161 1.79731 15.2571L1.29494 5.36346C1.28977 5.26316 1.36243 5.18196 1.45717 5.18176H11.3991Z" fill="white"/>
</mask>
<g mask="url(#mask1)">
<path fill-rule="evenodd" clip-rule="evenodd" d="M-3.70532 22H16.5616V0.181763H-3.70532V22Z" fill="#434EE4"/>
</g>
</svg>
